<svg width="1440" height="5600" viewBox="0 0 1440 5600" fill="none" xmlns="http://www.w3.org/2000/svg">
  <defs>
    <filter id="shadow" x="-20%" y="-20%" width="140%" height="140%">
      <feDropShadow dx="0" dy="18" stdDeviation="24" flood-color="#172033" flood-opacity="0.10"/>
    </filter>
    <style>
      .bg{fill:#F7F8FA}
      .surface{fill:#FFFFFF}
      .soft{fill:#EEF3F8}
      .ink{fill:#172033}
      .muted{fill:#667085}
      .line{stroke:#DDE3EA;stroke-width:1}
      .blue{fill:#1E5EFF}
      .green{fill:#1E9B73}
      .amber{fill:#C98216}
      .violet{fill:#6D5BD0}
      .h1{font-family:Inter,Arial,sans-serif;font-size:64px;font-weight:800;letter-spacing:0}
      .h2{font-family:Inter,Arial,sans-serif;font-size:40px;font-weight:800;letter-spacing:0}
      .h3{font-family:Inter,Arial,sans-serif;font-size:22px;font-weight:800;letter-spacing:0}
      .body{font-family:Inter,Arial,sans-serif;font-size:16px;font-weight:500;letter-spacing:0}
      .small{font-family:Inter,Arial,sans-serif;font-size:13px;font-weight:700;letter-spacing:0}
      .label{font-family:Inter,Arial,sans-serif;font-size:12px;font-weight:800;letter-spacing:0}
    </style>
  </defs>

  <rect class="bg" width="1440" height="5600"/>
  <circle cx="300" cy="120" r="260" fill="#1E5EFF" opacity="0.08"/>
  <circle cx="1160" cy="120" r="260" fill="#1E9B73" opacity="0.08"/>

  <!-- Fixed institutional icons -->
  <g filter="url(#shadow)">
    <rect x="32" y="24" width="150" height="62" rx="31" class="surface" stroke="#DDE3EA"/>
    <circle cx="72" cy="55" r="22" fill="#FFFFFF" stroke="#DDE3EA"/>
    <text x="72" y="59" text-anchor="middle" class="small ink">HUST</text>
    <line x1="104" y1="42" x2="104" y2="68" stroke="#DDE3EA"/>
    <circle cx="142" cy="55" r="22" fill="#FFFFFF" stroke="#DDE3EA"/>
    <text x="142" y="59" text-anchor="middle" class="small ink">UPS</text>
  </g>

  <!-- Fixed navigation trigger and dropdown -->
  <g filter="url(#shadow)">
    <circle cx="1378" cy="55" r="25" fill="#FFFFFF" stroke="#DDE3EA"/>
    <path d="M1372 43V67L1390 55L1372 43Z" fill="#172033"/>
    <rect x="1030" y="96" width="366" height="310" rx="14" fill="#FFFFFF" stroke="#DDE3EA"/>
    <text x="1052" y="134" class="small ink">Home</text>
    <text x="1052" y="180" class="small ink">Team Stuff</text>
    <text x="1052" y="226" class="small ink">Gantt Chart of Team Work Management</text>
    <text x="1052" y="272" class="small ink">Database &amp; Interactome</text>
    <text x="1052" y="318" class="small ink">Resume / Summary + Main Advice</text>
    <text x="1052" y="364" class="small ink">Proof of Professional Behavior</text>
  </g>

  <!-- Home -->
  <g id="home">
    <text x="130" y="250" class="label blue">FINAL ORAL PRESENTATION</text>
    <text x="130" y="345" class="h1 ink">PPEI_B3_S2 Oral</text>
    <text x="130" y="420" class="h1 ink">Presentation Project Website</text>
    <text x="130" y="478" class="body muted">Academic project homepage for Team B, Group 4, documenting team work, interviews, interactome analysis,</text>
    <text x="130" y="504" class="body muted">professional advice, and proof of professional behavior.</text>
    <rect x="130" y="550" width="86" height="42" rx="21" fill="#FFFFFF" stroke="#DDE3EA"/>
    <text x="173" y="576" text-anchor="middle" class="small ink">Team B</text>
    <rect x="228" y="550" width="92" height="42" rx="21" fill="#FFFFFF" stroke="#DDE3EA"/>
    <text x="274" y="576" text-anchor="middle" class="small ink">Group 4</text>
    <rect x="332" y="550" width="232" height="42" rx="21" fill="#FFFFFF" stroke="#DDE3EA"/>
    <text x="448" y="576" text-anchor="middle" class="small ink">Academic Project Homepage</text>

    <g filter="url(#shadow)">
      <rect x="850" y="210" width="430" height="430" rx="24" fill="#FFFFFF" stroke="#DDE3EA"/>
      <text x="890" y="270" class="h3 ink">Project Knowledge System</text>
      <text x="890" y="300" class="small muted">Presentation-friendly live navigation</text>
      <rect x="890" y="350" width="110" height="92" rx="8" class="surface" stroke="#DDE3EA"/>
      <text x="945" y="392" text-anchor="middle" class="small ink">Team</text>
      <rect x="1010" y="350" width="110" height="92" rx="8" fill="#F4F7FF" stroke="#9CB8FF"/>
      <text x="1065" y="392" text-anchor="middle" class="small ink">Workflow</text>
      <rect x="1130" y="350" width="110" height="92" rx="8" class="surface" stroke="#DDE3EA"/>
      <text x="1185" y="392" text-anchor="middle" class="small ink">Database</text>
      <rect x="890" y="458" width="110" height="92" rx="8" class="surface" stroke="#DDE3EA"/>
      <text x="945" y="500" text-anchor="middle" class="small ink">Network</text>
      <rect x="1010" y="458" width="110" height="92" rx="8" class="surface" stroke="#DDE3EA"/>
      <text x="1065" y="500" text-anchor="middle" class="small ink">Advice</text>
      <rect x="1130" y="458" width="110" height="92" rx="8" class="surface" stroke="#DDE3EA"/>
      <text x="1185" y="500" text-anchor="middle" class="small ink">Evidence</text>
    </g>
  </g>

  <!-- Team -->
  <g id="team">
    <text x="130" y="900" class="label blue">TEAM STUFF</text>
    <text x="130" y="970" class="h2 ink">Four parallel profile cards</text>
    <text x="130" y="1012" class="body muted">Headshots, basic information, jobs of interest, and fields of activity.</text>
    <g>
      <rect x="130" y="1080" width="270" height="392" rx="12" fill="#FFFFFF" stroke="#DDE3EA"/>
      <rect x="150" y="1100" width="230" height="150" rx="8" fill="#EEF3F8"/>
      <text x="265" y="1188" text-anchor="middle" class="h2 ink">M1</text>
      <text x="150" y="1295" class="h3 ink">Member Name</text>
      <line x1="150" y1="1342" x2="380" y2="1342" stroke="#DDE3EA"/>
      <text x="150" y="1372" class="label muted">JOB(S) OF INTEREST</text>
      <text x="150" y="1398" class="small ink">Research engineer</text>
      <line x1="150" y1="1422" x2="380" y2="1422" stroke="#DDE3EA"/>
      <text x="150" y="1450" class="label muted">FIELDS</text>
    </g>
    <g>
      <rect x="424" y="1080" width="270" height="392" rx="12" fill="#FFFFFF" stroke="#DDE3EA"/>
      <rect x="444" y="1100" width="230" height="150" rx="8" fill="#EEF3F8"/>
      <text x="559" y="1188" text-anchor="middle" class="h2 ink">M2</text>
      <text x="444" y="1295" class="h3 ink">Member Name</text>
      <line x1="444" y1="1342" x2="674" y2="1342" stroke="#DDE3EA"/>
      <text x="444" y="1372" class="label muted">JOB(S) OF INTEREST</text>
      <text x="444" y="1398" class="small ink">Clinical specialist</text>
      <line x1="444" y1="1422" x2="674" y2="1422" stroke="#DDE3EA"/>
      <text x="444" y="1450" class="label muted">FIELDS</text>
    </g>
    <g>
      <rect x="718" y="1080" width="270" height="392" rx="12" fill="#FFFFFF" stroke="#DDE3EA"/>
      <rect x="738" y="1100" width="230" height="150" rx="8" fill="#EEF3F8"/>
      <text x="853" y="1188" text-anchor="middle" class="h2 ink">M3</text>
      <text x="738" y="1295" class="h3 ink">Member Name</text>
      <line x1="738" y1="1342" x2="968" y2="1342" stroke="#DDE3EA"/>
      <text x="738" y="1372" class="label muted">JOB(S) OF INTEREST</text>
      <text x="738" y="1398" class="small ink">Data scientist</text>
      <line x1="738" y1="1422" x2="968" y2="1422" stroke="#DDE3EA"/>
      <text x="738" y="1450" class="label muted">FIELDS</text>
    </g>
    <g>
      <rect x="1012" y="1080" width="270" height="392" rx="12" fill="#FFFFFF" stroke="#DDE3EA"/>
      <rect x="1032" y="1100" width="230" height="150" rx="8" fill="#EEF3F8"/>
      <text x="1147" y="1188" text-anchor="middle" class="h2 ink">M4</text>
      <text x="1032" y="1295" class="h3 ink">Member Name</text>
      <line x1="1032" y1="1342" x2="1262" y2="1342" stroke="#DDE3EA"/>
      <text x="1032" y="1372" class="label muted">JOB(S) OF INTEREST</text>
      <text x="1032" y="1398" class="small ink">R&amp;D coordinator</text>
      <line x1="1032" y1="1422" x2="1262" y2="1422" stroke="#DDE3EA"/>
      <text x="1032" y="1450" class="label muted">FIELDS</text>
    </g>
  </g>

  <!-- Gantt -->
  <g id="gantt">
    <text x="130" y="1760" class="label blue">GANTT CHART</text>
    <text x="130" y="1830" class="h2 ink">Web-native timeline component</text>
    <text x="130" y="1872" class="body muted">Timeline columns, task rows, color-coded bars, and milestone markers.</text>
    <rect x="130" y="1940" width="1150" height="460" rx="16" fill="#FFFFFF" stroke="#DDE3EA" filter="url(#shadow)"/>
    <rect x="130" y="1940" width="1150" height="60" rx="16" fill="#EEF3F8"/>
    <line x1="130" y1="2000" x2="1280" y2="2000" stroke="#DDE3EA"/>
    <text x="160" y="1978" class="label muted">WORKSTREAM</text>
    <text x="425" y="1978" class="label muted">W1</text><text x="530" y="1978" class="label muted">W2</text><text x="635" y="1978" class="label muted">W3</text><text x="740" y="1978" class="label muted">W4</text><text x="845" y="1978" class="label muted">W5</text><text x="950" y="1978" class="label muted">W6</text><text x="1055" y="1978" class="label muted">W7</text><text x="1160" y="1978" class="label muted">W8</text>
    <text x="160" y="2052" class="small ink">Topic framing &amp; roles</text>
    <rect x="395" y="2030" width="210" height="22" rx="11" class="blue"/>
    <text x="160" y="2132" class="small ink">Interview preparation</text>
    <rect x="500" y="2110" width="210" height="22" rx="11" class="green"/>
    <rect x="742" y="2114" width="16" height="16" rx="2" fill="#172033" transform="rotate(45 750 2122)"/>
    <text x="160" y="2212" class="small ink">Database construction</text>
    <rect x="605" y="2190" width="315" height="22" rx="11" class="amber"/>
    <text x="160" y="2292" class="small ink">Interactome redesign</text>
    <rect x="710" y="2270" width="315" height="22" rx="11" class="violet"/>
    <text x="160" y="2372" class="small ink">Website build &amp; rehearsal</text>
    <rect x="815" y="2350" width="315" height="22" rx="11" class="blue"/>
    <rect x="1162" y="2354" width="16" height="16" rx="2" fill="#172033" transform="rotate(45 1170 2362)"/>
  </g>

  <!-- Database and Interactome -->
  <g id="database">
    <text x="130" y="2670" class="label blue">DATABASE &amp; INTERACTOME</text>
    <text x="130" y="2740" class="h2 ink">Network visual + structured database</text>
    <text x="130" y="2782" class="body muted">Concept map paired with person tabs and accordion categories.</text>
    <rect x="130" y="2850" width="520" height="520" rx="16" fill="#FFFFFF" stroke="#DDE3EA"/>
    <text x="160" y="2910" class="h3 ink">Interactome</text>
    <rect x="160" y="2955" width="460" height="360" rx="12" fill="#F7FAFC" stroke="#DDE3EA"/>
    <line x1="390" y1="3135" x2="290" y2="3035" stroke="#AEB9C7" stroke-width="2"/>
    <line x1="390" y1="3135" x2="490" y2="3035" stroke="#AEB9C7" stroke-width="2"/>
    <line x1="390" y1="3135" x2="245" y2="3165" stroke="#AEB9C7" stroke-width="2"/>
    <line x1="390" y1="3135" x2="535" y2="3165" stroke="#AEB9C7" stroke-width="2"/>
    <line x1="390" y1="3135" x2="320" y2="3265" stroke="#AEB9C7" stroke-width="2"/>
    <line x1="390" y1="3135" x2="460" y2="3265" stroke="#AEB9C7" stroke-width="2"/>
    <circle cx="390" cy="3135" r="32" fill="#FFFFFF" stroke="#1E5EFF" stroke-width="3"/>
    <text x="390" y="3141" text-anchor="middle" class="small ink">PPEI</text>
    <circle cx="290" cy="3035" r="22" fill="#FFFFFF" stroke="#1E5EFF" stroke-width="2"/>
    <text x="290" y="3040" text-anchor="middle" class="small ink">Careers</text>
    <circle cx="490" cy="3035" r="22" fill="#FFFFFF" stroke="#1E5EFF" stroke-width="2"/>
    <text x="490" y="3040" text-anchor="middle" class="small ink">Skills</text>
    <circle cx="245" cy="3165" r="22" fill="#FFFFFF" stroke="#1E5EFF" stroke-width="2"/>
    <text x="245" y="3170" text-anchor="middle" class="small ink">Ethics</text>
    <circle cx="535" cy="3165" r="22" fill="#FFFFFF" stroke="#1E5EFF" stroke-width="2"/>
    <text x="535" y="3170" text-anchor="middle" class="small ink">Network</text>
    <circle cx="320" cy="3265" r="22" fill="#FFFFFF" stroke="#1E5EFF" stroke-width="2"/>
    <text x="320" y="3270" text-anchor="middle" class="small ink">Advice</text>
    <circle cx="460" cy="3265" r="22" fill="#FFFFFF" stroke="#1E5EFF" stroke-width="2"/>
    <text x="460" y="3270" text-anchor="middle" class="small ink">Proof</text>

    <rect x="690" y="2850" width="590" height="520" rx="16" fill="#FFFFFF" stroke="#DDE3EA"/>
    <text x="722" y="2910" class="h3 ink">Interview Database</text>
    <rect x="722" y="2950" width="126" height="38" rx="19" fill="#172033"/>
    <text x="785" y="2974" text-anchor="middle" class="small" fill="#FFFFFF">Professional 1</text>
    <rect x="858" y="2950" width="126" height="38" rx="19" fill="#F8FAFC" stroke="#DDE3EA"/>
    <text x="921" y="2974" text-anchor="middle" class="small muted">Professional 2</text>
    <rect x="994" y="2950" width="126" height="38" rx="19" fill="#F8FAFC" stroke="#DDE3EA"/>
    <text x="1057" y="2974" text-anchor="middle" class="small muted">Professional 3</text>
    <rect x="722" y="3020" width="526" height="72" rx="10" fill="#FBFCFE" stroke="#DDE3EA"/>
    <text x="748" y="3064" class="small ink">Identity &amp; role</text>
    <text x="1224" y="3064" text-anchor="middle" class="small blue">+</text>
    <rect x="722" y="3110" width="526" height="72" rx="10" fill="#FBFCFE" stroke="#DDE3EA"/>
    <text x="748" y="3154" class="small ink">Career path</text>
    <text x="1224" y="3154" text-anchor="middle" class="small blue">+</text>
    <rect x="722" y="3200" width="526" height="72" rx="10" fill="#FBFCFE" stroke="#DDE3EA"/>
    <text x="748" y="3244" class="small ink">Skills &amp; methods</text>
    <text x="1224" y="3244" text-anchor="middle" class="small blue">+</text>
  </g>

  <!-- Summary -->
  <g id="summary">
    <text x="130" y="3650" class="label blue">RESUME / SUMMARY + MAIN ADVICE</text>
    <text x="130" y="3720" class="h2 ink">Interview summaries and final synthesis</text>
    <text x="130" y="3762" class="body muted">Three source blocks on the left, one larger recommendation block on the right.</text>
    <rect x="130" y="3830" width="510" height="180" rx="16" fill="#FFFFFF" stroke="#DDE3EA"/>
    <text x="160" y="3890" class="h3 ink">Interview 01 summary</text>
    <text x="160" y="3930" class="body muted">Concise professional summary placeholder.</text>
    <rect x="130" y="4030" width="510" height="180" rx="16" fill="#FFFFFF" stroke="#DDE3EA"/>
    <text x="160" y="4090" class="h3 ink">Interview 02 summary</text>
    <text x="160" y="4130" class="body muted">Concise professional summary placeholder.</text>
    <rect x="130" y="4230" width="510" height="180" rx="16" fill="#FFFFFF" stroke="#DDE3EA"/>
    <text x="160" y="4290" class="h3 ink">Interview 03 summary</text>
    <text x="160" y="4330" class="body muted">Concise professional summary placeholder.</text>
    <rect x="690" y="3830" width="590" height="580" rx="16" fill="#F4F7FF" stroke="#9CB8FF"/>
    <text x="730" y="3890" class="h3 ink">Main advice / recommendations</text>
    <text x="730" y="3930" class="body muted">Synthesis block for the final takeaways.</text>
    <circle cx="752" cy="4018" r="18" class="blue"/>
    <text x="752" y="4024" text-anchor="middle" class="small" fill="#FFFFFF">1</text>
    <text x="790" y="4024" class="small ink">Build transferable professional skills.</text>
    <circle cx="752" cy="4108" r="18" class="blue"/>
    <text x="752" y="4114" text-anchor="middle" class="small" fill="#FFFFFF">2</text>
    <text x="790" y="4114" class="small ink">Use interviews as evidence.</text>
    <circle cx="752" cy="4198" r="18" class="blue"/>
    <text x="752" y="4204" text-anchor="middle" class="small" fill="#FFFFFF">3</text>
    <text x="790" y="4204" class="small ink">Make collaboration visible.</text>
  </g>

  <!-- Proof -->
  <g id="proof">
    <text x="130" y="4700" class="label blue">PROOF OF PROFESSIONAL BEHAVIOR</text>
    <text x="130" y="4770" class="h2 ink">Clean evidence placeholder</text>
    <text x="130" y="4812" class="body muted">Prepared area for screenshots, communication records, meeting notes, and behavior checklist.</text>
    <rect x="130" y="4880" width="1150" height="400" rx="16" fill="#FFFFFF" stroke="#DDE3EA"/>
    <circle cx="705" cy="4980" r="40" fill="#EEF3FF" stroke="#9CB8FF"/>
    <text x="705" y="4994" text-anchor="middle" class="h2 blue">+</text>
    <text x="705" y="5065" text-anchor="middle" class="h3 ink">Evidence area prepared</text>
    <text x="705" y="5102" text-anchor="middle" class="body muted">Future proof can be inserted here without redesigning the section.</text>
    <rect x="190" y="5160" width="240" height="92" rx="10" fill="#FBFCFE" stroke="#AEB9C7" stroke-dasharray="7 7"/>
    <text x="310" y="5212" text-anchor="middle" class="small muted">Screenshot</text>
    <rect x="458" y="5160" width="240" height="92" rx="10" fill="#FBFCFE" stroke="#AEB9C7" stroke-dasharray="7 7"/>
    <text x="578" y="5212" text-anchor="middle" class="small muted">Email / Message</text>
    <rect x="726" y="5160" width="240" height="92" rx="10" fill="#FBFCFE" stroke="#AEB9C7" stroke-dasharray="7 7"/>
    <text x="846" y="5212" text-anchor="middle" class="small muted">Meeting Note</text>
    <rect x="994" y="5160" width="240" height="92" rx="10" fill="#FBFCFE" stroke="#AEB9C7" stroke-dasharray="7 7"/>
    <text x="1114" y="5212" text-anchor="middle" class="small muted">Checklist</text>
  </g>

  <text x="720" y="5450" text-anchor="middle" class="small muted">PPEI_B3_S2 / Team B / Group 4 / Final Oral Presentation</text>
</svg>
